PathFileType	4	(X/Y/Z)	D:\TRACE\spotREDO_2-26-24\spot_Both_Motion_3_7-v60.trc
DataRate	CameraRate	NumFrames	NumMarkers	Units	OrigDataRate	OrigDataStartFrame	OrigNumFrames
100.00	100.00	      21	9	mm	100.00	1	      7000
Frame#	Time	front left toe			Front right toe			aft left toe			aft right toe			Arm			FL body			FR body			AL Body			AR Body			
		X1	Y1	Z1	X2	Y2	Z2	X3	Y3	Z3	X4	Y4	Z4	X5	Y5	Z5	X6	Y6	Z6	X7	Y7	Z7	X8	Y8	Z8	X9	Y9	Z9	

1	0.000	-197.42809	44.60748	-87.18584	265.02631	57.81857	-149.51950	-268.38675	-48.22135	426.90369	235.02205	-44.19271	450.45071	21.20386	983.76855	-362.54266	-77.71399	652.13922	-237.86206	78.27299	655.03143	-231.48923	-116.68816	509.58771	634.25488	30.43032	501.69028	641.43579	
2	0.010	-197.43933	44.68930	-87.25451	265.09299	57.81424	-149.56273	-268.30389	-48.27306	426.87164	235.04469	-44.29919	450.40936	21.29478	984.33618	-363.23929	-76.95673	652.39905	-237.93085	79.24211	655.47180	-231.38324	-116.25411	509.69089	634.24481	31.22653	501.98349	641.44983	
3	0.020	-197.42073	44.77296	-87.27727	264.99658	57.72063	-149.56195	-268.28143	-48.23034	426.86697	235.05772	-44.34779	450.42072	21.38811	984.95520	-363.69400	-76.20000	652.66333	-238.11841	79.77029	655.85486	-231.38670	-115.55635	509.76505	634.26318	31.60143	502.13715	641.41382	
4	0.030	-197.41682	44.90101	-87.28254	265.13406	57.74454	-149.52310	-268.29895	-48.14399	426.85303	235.14908	-44.38497	450.43668	21.42510	985.49762	-364.58829	-75.23668	652.75494	-238.10794	80.41560	656.54187	-231.64903	-115.00021	509.91226	634.28674	32.21071	502.30316	641.33295	
5	0.040	-197.40099	45.02643	-87.33125	265.16470	57.71045	-149.47992	-268.30011	-48.06646	426.82101	235.17088	-44.47179	450.43015	21.52609	985.96460	-365.27393	-74.60406	652.78296	-237.98605	80.91077	656.89117	-231.66872	-114.43529	510.02777	634.25647	32.61121	502.54385	641.37463	
6	0.050	-197.35869	45.08115	-87.35429	265.19519	57.74819	-149.44997	-268.29510	-48.04257	426.78070	235.23848	-44.48134	450.45047	21.69888	986.24908	-365.55081	-74.09205	653.10205	-238.00227	81.69191	657.16718	-231.65053	-113.87983	510.17081	634.21887	33.17070	502.63950	641.27069	
7	0.060	-197.31352	45.02816	-87.38702	265.24927	57.69347	-149.47867	-268.28452	-48.03131	426.77048	235.26665	-44.50961	450.40393	21.69892	987.02472	-366.30978	-73.13656	653.38788	-238.09851	82.54469	657.53253	-231.62544	-113.31236	510.29797	634.15845	33.76856	502.91028	641.30560	
8	0.070	-197.21407	45.08805	-87.42503	265.21539	57.60651	-149.54301	-268.25211	-48.08753	426.78525	235.31059	-44.58837	450.44604	21.59085	987.58270	-367.26508	-72.60114	653.66681	-238.13884	83.00339	657.76160	-231.70335	-112.87626	510.34427	634.13354	34.35292	503.14307	641.19739	
9	0.080	-197.15277	45.13610	-87.45107	265.24362	57.57248	-149.52994	-268.24799	-47.97519	426.76645	235.36122	-44.61971	450.50586	21.73383	988.01367	-367.63486	-71.98200	653.77472	-238.14255	83.66496	658.06958	-231.60635	-112.50939	510.41931	634.03967	34.57124	503.22382	641.19250	
10	0.090	-197.18329	45.22637	-87.51042	265.27933	57.61401	-149.47661	-268.22601	-47.90569	426.72250	235.42274	-44.63321	450.49319	21.79386	988.39948	-368.24863	-71.19144	653.94470	-237.98560	84.35981	658.38171	-231.63359	-111.95815	510.51984	634.04071	34.90918	503.26108	641.18542	
11	0.100	-197.04425	45.29137	-87.52352	265.25742	57.52293	-149.54341	-268.24628	-47.90632	426.72516	235.49245	-44.63659	450.53357	21.81247	988.89557	-368.95377	-70.79317	654.28418	-238.02354	84.96331	658.61835	-231.56764	-111.45220	510.55255	634.01385	35.54807	503.38370	641.20422	
12	0.110	-196.97688	45.29506	-87.57425	265.14261	57.60823	-149.56677	-268.17734	-47.90894	426.70264	235.56635	-44.72513	450.56723	21.84782	989.54633	-369.57639	-70.10523	654.48462	-238.10370	85.72214	658.92670	-231.38464	-111.01447	510.55539	634.00757	36.13636	503.48331	641.24463	
13	0.120	-196.87930	45.23455	-87.60220	265.34949	57.41282	-149.53152	-268.13248	-47.91930	426.73706	235.62668	-44.80289	450.56567	21.88415	989.92194	-370.12701	-69.32812	654.57263	-238.10095	86.31469	659.09491	-231.36723	-110.68376	510.60751	634.00531	36.64319	503.64328	641.30389	
14	0.130	-196.84967	45.37682	-87.63217	265.12558	57.56499	-149.60129	-268.06146	-47.90978	426.70453	235.72955	-44.77353	450.56458	21.85357	990.33453	-370.96814	-68.78105	654.71552	-238.10788	86.75767	659.37738	-231.41817	-110.16570	510.80469	633.94666	37.06242	503.86755	641.28638	
15	0.140	-196.76184	45.47235	-87.67420	265.13980	57.49962	-149.62392	-268.07071	-47.82510	426.70435	235.64323	-44.82310	450.58499	21.87350	990.67999	-371.45120	-68.50097	654.86957	-238.10907	87.27016	659.58643	-231.38553	-109.70712	510.93527	633.94165	37.51999	504.01172	641.39856	
16	0.150	-196.79712	45.50903	-87.67365	265.31848	57.51066	-149.56319	-268.05933	-47.78874	426.72968	235.75871	-44.82848	450.65524	22.07606	991.13196	-372.13791	-67.81828	655.07300	-238.14343	87.93472	659.74463	-231.33122	-109.30709	511.03409	633.99658	38.05103	504.14636	641.39886	
17	0.160	-196.70065	45.54265	-87.71526	265.55710	57.33924	-149.54990	-268.01855	-47.80069	426.71204	235.78152	-44.82182	450.63058	22.14159	991.68109	-372.93677	-67.28481	655.24896	-238.08430	88.44598	659.93042	-231.25426	-108.69105	511.11621	634.01563	38.41537	504.27673	641.29205	
18	0.170	-196.59134	45.51203	-87.75366	265.57520	57.32136	-149.56879	-267.94971	-47.84303	426.69479	235.78157	-44.84634	450.62665	22.20413	992.10559	-373.39496	-66.85315	655.49176	-238.05765	88.73658	660.10229	-231.29752	-108.18614	511.17151	633.95721	38.70072	504.46582	641.42737	
19	0.180	-196.48244	45.51600	-87.73672	265.37875	57.37672	-149.59189	-267.94803	-47.83266	426.69992	235.90349	-44.80423	450.68130	22.22970	992.54547	-373.91736	-66.29015	655.57849	-238.13380	89.23660	660.34753	-231.28532	-107.85047	511.24387	633.96478	39.02699	504.53320	641.42786	
20	0.190	-196.49117	45.57103	-87.75641	265.58539	57.46980	-149.23291	-267.88806	-47.76357	426.71765	235.86273	-44.83095	450.68494	22.24091	992.97650	-374.80307	-65.79150	655.66406	-238.21150	89.78991	660.66791	-231.22404	-107.39019	511.44662	634.02441	39.62719	504.77304	641.38812	
21	0.200	-196.43648	45.65293	-87.78026	265.65424	57.25510	-149.60326	-267.83832	-47.69696	426.72379	235.95490	-44.79624	450.70447	22.33630	993.52545	-375.31534	-65.34504	655.86188	-238.08546	90.18742	660.86914	-231.27211	-107.04535	511.48679	634.09082	40.06026	504.92145	641.29883	
